<?xml version="1.0" standalone="no"?>
<!DOCTYPE svg PUBLIC "-//W3C//DTD SVG 20010904//EN"
 "http://www.w3.org/TR/2001/REC-SVG-20010904/DTD/svg10.dtd">
<svg version="1.0" xmlns="http://www.w3.org/2000/svg"
 width="1890.000000pt" height="1890.000000pt" viewBox="0 0 1890.000000 1890.000000"
 preserveAspectRatio="xMidYMid meet">
<metadata>
Created by potrace 1.14, written by Peter Selinger 2001-2017
</metadata>
<g transform="translate(0.000000,1890.000000) scale(0.100000,-0.100000)"
fill="#000000" stroke="none">
<path d="M8565 16739 c-1123 -71 -2180 -382 -3145 -927 -1737 -981 -3002
-2632 -3490 -4557 -96 -378 -150 -694 -196 -1135 -21 -208 -30 -875 -15 -1121
102 -1645 748 -3191 1843 -4414 150 -167 478 -491 638 -631 1520 -1328 3510
-1965 5520 -1768 1878 183 3599 1080 4829 2514 64 74 140 167 170 205 30 39
59 75 63 80 6 7 427 12 1207 15 l1198 5 -709 835 c-389 459 -708 840 -708 845
0 6 14 46 31 90 210 540 349 1068 428 1621 191 1335 18 2687 -501 3909 -83
197 -279 591 -385 775 -565 980 -1346 1817 -2277 2440 -1095 731 -2315 1140
-3643 1220 -196 11 -665 11 -858 -1z m-2040 -2869 c242 -583 443 -1056 446
-1052 3 4 199 471 434 1037 235 567 433 1040 438 1053 l10 22 353 0 353 0 5
-42 c10 -70 286 -3071 286 -3100 l0 -28 -349 0 -348 0 -6 43 c-3 23 -40 450
-84 950 -43 499 -80 907 -83 907 -3 0 -181 -419 -395 -930 l-390 -930 -229 2
-229 3 -391 935 -391 934 -7 -54 c-4 -30 -42 -455 -83 -945 -42 -489 -78 -896
-80 -902 -3 -10 -83 -13 -356 -13 l-351 0 6 53 c10 86 286 3070 286 3094 l0
23 358 0 357 -1 440 -1059z m3435 0 l0 -1060 -350 0 -350 0 0 1060 0 1060 350
0 350 0 0 -1060z m0 -1770 l0 -340 -350 0 -350 0 0 340 0 340 350 0 350 0 0
-340z m2318 -2 l2 -338 -980 0 -980 0 0 340 0 340 978 -2 977 -3 3 -337z
m-5298 -1353 l0 -295 -450 0 -450 0 0 -1290 0 -1290 -345 0 -345 0 0 1290 0
1290 -445 0 -445 0 0 295 0 295 1240 0 1240 0 0 -295z m1088 -392 l2 -683 595
0 595 0 2 683 3 682 353 3 352 2 0 -1585 0 -1585 -352 2 -353 3 -3 613 -2 612
-595 0 -595 0 -2 -612 -3 -613 -352 -3 -353 -2 0 1585 0 1585 353 -2 352 -3 3
-682z m4210 670 c13 -24 1232 -3139 1232 -3147 0 -3 -165 -5 -367 -4 l-366 3
-110 288 -110 287 -626 0 -626 0 -89 -248 c-50 -136 -98 -266 -108 -289 l-17
-43 -361 0 c-198 0 -360 2 -360 4 0 2 271 705 601 1563 331 857 605 1568 610
1581 l9 22 339 0 c314 0 341 -1 349 -17z m-7388 -2813 l0 -340 -350 0 -350 0
0 340 0 340 350 0 350 0 0 -340z m8940 -1335 l0 -335 -4820 0 -4820 0 0 335 0
335 4820 0 4820 0 0 -335z m-7810 -1023 c30 -12 66 -31 79 -41 l25 -19 -19
-42 c-10 -22 -22 -43 -26 -45 -4 -3 -26 6 -50 19 -95 51 -239 59 -332 18 -245
-108 -244 -486 0 -594 95 -42 247 -32 341 23 18 10 35 19 37 19 6 0 45 -77 45
-89 0 -14 -79 -57 -139 -75 -106 -31 -273 -16 -372 34 -81 42 -165 137 -195
222 -58 164 -27 336 83 458 52 58 110 94 191 121 80 27 254 22 332 -9z m928 6
c65 -16 143 -94 162 -163 19 -68 16 -153 -8 -207 -25 -58 -85 -115 -135 -130
-38 -12 -39 -12 -34 -52 7 -53 55 -144 90 -170 34 -25 95 -26 133 -1 14 9 27
15 29 13 1 -2 12 -21 23 -43 l20 -41 -35 -24 c-46 -31 -137 -39 -196 -16 -83
31 -153 131 -178 254 l-13 62 -83 0 -83 0 0 -160 0 -160 -65 0 -65 0 0 425 0
425 196 0 c117 0 214 -5 242 -12z m1182 -38 l0 -50 -210 0 -210 0 0 -140 0
-140 180 0 180 0 0 -55 0 -55 -180 0 -180 0 0 -130 0 -130 210 0 210 0 0 -50
0 -50 -275 0 -275 0 0 425 0 425 275 0 275 0 0 -50z m785 33 c3 -10 76 -198
161 -419 85 -220 154 -404 154 -408 0 -4 -28 -6 -62 -4 l-61 3 -31 83 -31 82
-209 -2 -209 -3 -30 -82 -30 -83 -64 0 c-36 0 -63 4 -61 9 2 5 75 197 163 425
l160 416 71 0 c59 0 73 -3 79 -17z m1195 -33 l0 -50 -140 0 -140 0 0 -375 0
-375 -65 0 -65 0 0 375 0 375 -140 0 -140 0 0 50 0 50 345 0 345 0 0 -50z
m500 -375 l0 -425 -65 0 -65 0 0 425 0 425 65 0 65 0 0 -425z m630 76 l117
-344 115 344 115 344 61 3 c34 2 62 0 62 -4 0 -3 -59 -176 -131 -383 -73 -207
-138 -395 -146 -418 l-15 -43 -63 0 -62 0 -140 403 c-77 221 -144 412 -148
425 -7 23 -5 23 56 20 l62 -3 117 -344z m1400 299 l0 -50 -205 0 -205 0 0
-140 0 -140 181 0 180 0 -3 -52 -3 -53 -177 -3 -178 -2 0 -130 0 -130 205 0
205 0 0 -50 0 -50 -270 0 -270 0 0 425 0 425 270 0 270 0 0 -50z m-6851 -1136
c66 -19 134 -80 157 -140 9 -24 15 -46 13 -47 -2 -2 -27 -10 -55 -19 l-51 -15
-18 39 c-59 134 -295 105 -295 -37 0 -69 40 -96 262 -176 56 -19 129 -79 151
-122 44 -86 28 -193 -41 -260 -120 -117 -371 -107 -482 19 -27 32 -60 90 -60
108 0 3 19 10 43 16 23 6 50 13 60 16 11 3 17 0 17 -10 0 -23 49 -75 91 -96
43 -22 139 -27 186 -9 39 15 81 57 88 89 9 42 -18 95 -62 123 -21 14 -87 42
-147 63 -163 57 -220 109 -232 211 -9 76 10 131 66 185 77 74 192 97 309 62z
m951 -13 c112 -43 209 -139 251 -248 33 -87 37 -210 10 -291 -59 -173 -194
-281 -382 -307 -64 -8 -176 17 -250 56 -157 84 -251 273 -222 444 30 176 151
311 323 361 65 19 201 11 270 -15z m3811 13 c147 -44 251 -143 299 -285 43
-127 24 -265 -51 -378 -154 -231 -479 -263 -675 -66 -168 167 -173 431 -12
601 29 31 72 67 96 81 102 60 236 78 343 47z m1858 0 c30 -9 69 -30 92 -51 39
-35 79 -99 79 -125 0 -7 -24 -20 -54 -29 l-54 -16 -17 39 c-59 134 -295 104
-295 -37 0 -36 5 -47 34 -73 31 -27 64 -42 229 -102 104 -39 177 -132 177
-227 0 -89 -67 -179 -160 -214 -64 -24 -181 -29 -247 -11 -84 25 -178 109
-198 179 -5 19 -1 23 37 33 24 6 51 13 61 16 11 3 17 0 17 -10 0 -23 49 -75
91 -96 87 -45 230 -15 263 54 20 42 20 59 1 96 -22 42 -61 66 -186 110 -63 23
-131 52 -151 66 -78 51 -114 149 -88 244 16 60 91 134 157 154 64 19 147 20
212 0z m-5039 -369 l0 -375 195 0 195 0 0 -50 0 -50 -255 0 -255 0 0 425 0
425 60 0 60 0 0 -375z m662 78 c3 -290 4 -299 27 -346 34 -69 85 -100 171
-105 114 -7 192 44 219 143 7 25 11 149 11 323 l0 282 60 0 60 0 0 -305 c0
-286 -1 -308 -21 -362 -45 -123 -163 -196 -314 -196 -143 1 -248 60 -302 171
l-28 57 -3 318 -3 317 60 0 59 0 4 -297z m1418 242 l0 -55 -140 0 -140 0 0
-370 0 -370 -65 0 -65 0 0 370 0 369 -137 3 -138 3 -3 53 -3 52 345 0 346 0 0
-55z m320 -370 l0 -425 -65 0 -65 0 0 425 0 425 65 0 65 0 0 -425z m1648 120
l227 -306 5 303 5 303 63 3 62 3 0 -426 0 -425 -48 0 -48 0 -224 304 -225 303
-3 -303 -2 -304 -65 0 -65 0 0 425 0 425 45 0 46 0 227 -305z"/>
<path d="M11916 10238 c-44 -120 -406 -1185 -406 -1195 0 -10 91 -13 421 -13
333 0 420 3 416 13 -2 6 -95 288 -206 625 -111 336 -203 612 -206 612 -2 0
-10 -19 -19 -42z"/>
<path d="M6640 5606 l0 -166 115 0 c124 0 164 10 202 51 44 48 49 153 9 214
-34 51 -61 60 -198 64 l-128 3 0 -166z"/>
<path d="M8753 5523 l-80 -218 160 -3 c88 -1 162 -1 164 1 4 4 -141 397 -156
425 -4 8 -38 -71 -88 -205z"/>
<path d="M6498 4577 c-145 -41 -236 -179 -226 -341 6 -90 39 -157 108 -219 66
-60 130 -81 224 -75 83 6 138 30 196 88 64 64 83 112 88 216 4 83 2 97 -23
153 -31 69 -94 133 -160 162 -57 25 -148 32 -207 16z"/>
<path d="M10364 4581 c-54 -14 -135 -64 -165 -102 -56 -70 -74 -125 -74 -219
1 -65 6 -96 22 -132 32 -70 94 -131 164 -163 55 -24 71 -27 138 -23 127 7 214
68 270 188 37 79 36 194 -2 272 -35 72 -88 125 -154 155 -58 27 -148 37 -199
24z"/>
</g>
</svg>
